<?xml version="1.0" standalone="no"?>
<!DOCTYPE svg PUBLIC "-//W3C//DTD SVG 20010904//EN"
 "http://www.w3.org/TR/2001/REC-SVG-20010904/DTD/svg10.dtd">
<svg version="1.0" xmlns="http://www.w3.org/2000/svg"
 width="16.000000pt" height="16.000000pt" viewBox="0 0 16.000000 16.000000"
 preserveAspectRatio="xMidYMid meet">
<metadata>
Created by potrace 1.11, written by Peter Selinger 2001-2013
</metadata>
<g transform="translate(0.000000,16.000000) scale(0.000991,-0.000991)"
fill="#000000" stroke="none">
<path d="M7861 13130 c-226 -48 -479 -213 -733 -478 -348 -364 -461 -656 -452
-1167 6 -319 36 -497 144 -851 70 -229 74 -264 55 -474 -17 -181 -12 -258 31
-475 51 -253 195 -800 278 -1054 104 -318 138 -463 140 -591 0 -78 -3 -104
-21 -143 -54 -118 -202 -229 -558 -417 -251 -132 -511 -315 -1080 -756 -625
-485 -977 -898 -1160 -1359 -107 -270 -146 -497 -100 -585 14 -27 44 -42 46
-22 0 4 11 48 24 97 l23 90 -5 -105 c-9 -178 24 -366 91 -522 220 -509 836
-853 1650 -923 89 -7 424 -7 501 1 215 21 467 79 645 150 611 240 1101 762
1383 1474 119 300 193 651 215 1020 12 188 3 701 -13 837 -3 21 -12 103 -21
183 -8 80 -22 181 -29 225 -12 72 -22 142 -40 273 -9 65 9 104 77 167 91 85
171 130 423 241 312 137 896 501 1505 939 85 62 257 179 381 262 254 169 364
249 491 361 195 169 322 352 358 513 18 81 9 221 -19 284 -42 95 -99 136 -191
136 -137 1 -313 -108 -739 -456 -100 -82 -221 -177 -267 -210 -191 -137 -752
-466 -1164 -683 -58 -30 -109 -58 -115 -62 -11 -8 -383 -199 -700 -359 l-200
-102 -16 48 -16 48 0 -54 c-1 -29 -6 -58 -12 -64 -6 -6 -11 -7 -11 -3 0 4 -38
173 -84 374 -112 486 -174 764 -251 1132 -64 304 -86 428 -65 365 6 -16 37
-131 69 -255 109 -419 166 -629 169 -625 3 2 -12 80 -32 172 -101 475 -229
1102 -251 1236 -5 32 -9 36 -21 27 -8 -7 -14 -20 -15 -29 -2 -31 -28 106 -44
239 -13 101 -16 174 -12 290 8 221 28 291 191 680 41 98 44 90 16 -45 -11 -54
-18 -100 -16 -103 3 -2 16 7 29 22 39 42 78 188 111 412 27 182 29 245 11 289
-46 109 -193 314 -216 299 -5 -3 -24 7 -43 21 -78 60 -233 88 -345 65z m386
-2652 c-3 -7 -5 -2 -5 12 0 14 2 19 5 13 2 -7 2 -19 0 -25z m-902 -3513 c-22
-19 -36 -35 -32 -35 12 0 70 30 88 47 15 13 17 10 22 -34 8 -87 0 -586 -12
-683 -33 -265 -72 -435 -132 -571 -100 -228 -289 -584 -377 -709 -27 -38 -36
-57 -22 -45 l23 20 -11 -21 c-32 -61 -319 -310 -437 -379 -29 -17 -30 -17 -9
1 11 11 40 36 64 56 25 20 42 40 38 43 -4 4 -112 -35 -240 -85 -284 -113 -399
-139 -638 -145 -164 -5 -236 5 -339 44 -77 29 -120 66 -148 128 -59 128 -17
326 127 599 243 461 486 688 1370 1279 162 108 315 213 340 233 126 100 210
175 215 193 5 15 128 100 145 99 3 -1 -13 -16 -35 -35z m903 -2247 c-147 -262
-309 -443 -533 -593 -278 -186 -688 -327 -1152 -395 -153 -23 -218 -25 -98 -4
537 95 1027 316 1414 639 111 93 266 249 344 348 33 42 62 77 63 77 2 0 -15
-33 -38 -72z"/>
<path d="M8501 9524 c0 -11 3 -14 6 -6 3 7 2 16 -1 19 -3 4 -6 -2 -5 -13z"/>
<path d="M8511 9484 c0 -11 3 -14 6 -6 3 7 2 16 -1 19 -3 4 -6 -2 -5 -13z"/>
<path d="M8590 9148 c0 -36 80 -401 86 -395 2 2 -3 42 -12 88 -29 156 -74 343
-74 307z"/>
</g>
</svg>
